<?xml version="1.0" standalone="no"?>
<!DOCTYPE svg PUBLIC "-//W3C//DTD SVG 20010904//EN"
 "http://www.w3.org/TR/2001/REC-SVG-20010904/DTD/svg10.dtd">
<svg version="1.0" xmlns="http://www.w3.org/2000/svg"
 width="1312.000000pt" height="872.000000pt" viewBox="0 0 1312.000000 872.000000"
 preserveAspectRatio="xMidYMid meet">

<g transform="translate(0.000000,872.000000) scale(0.100000,-0.100000)"
fill="#004aad" stroke="none">
<path d="M7438 8289 c-10 -5 -18 -20 -18 -32 0 -39 -57 -123 -142 -208 -103
-103 -237 -228 -223 -208 6 8 2 6 -9 -6 -10 -11 -22 -21 -27 -21 -5 -1 -12 -2
-15 -3 -4 0 -1 -8 6 -16 14 -16 34 -10 24 7 -5 7 -1 9 9 5 10 -4 17 -2 17 5 0
7 5 6 15 -2 11 -9 15 -10 15 -1 0 8 8 10 20 6 10 -3 32 0 47 8 15 8 42 15 58
15 17 0 44 6 60 13 17 6 42 11 57 10 15 -1 36 3 47 9 31 16 26 4 -16 -41 -21
-23 -38 -46 -38 -52 -1 -7 -7 -11 -14 -9 -8 2 -10 -2 -4 -10 4 -7 9 -29 9 -48
6 -136 15 -304 24 -415 5 -71 8 -155 6 -185 -3 -30 -5 -79 -5 -108 -1 -38 -4
-51 -13 -46 -7 4 -8 3 -4 -5 4 -6 12 -9 17 -6 15 10 10 -22 -6 -35 -12 -10
-19 -10 -27 -2 -14 14 -42 16 -34 3 5 -8 -40 -26 -56 -23 -5 1 -7 -1 -6 -6 1
-4 -5 -21 -14 -38 -9 -17 -18 -52 -19 -77 -2 -39 -5 -44 -19 -37 -41 22 -139
-58 -140 -115 0 -11 -7 -29 -15 -39 -30 -40 -13 -86 32 -86 25 0 67 35 58 49
-2 5 3 8 12 7 10 0 18 6 18 14 1 8 7 14 15 12 8 -2 12 -1 8 3 -3 4 5 23 18 42
13 20 24 49 24 64 0 27 2 28 21 17 17 -10 23 -10 26 0 3 6 14 12 24 12 12 0
17 -4 13 -11 -4 -8 0 -7 15 1 12 6 30 9 39 7 16 -4 16 -5 0 -6 -19 -1 -26 -21
-8 -21 6 0 10 -7 10 -15 0 -8 5 -15 11 -15 5 0 8 -4 4 -9 -3 -5 -1 -12 4 -15
5 -3 9 -27 10 -53 1 -90 9 -238 12 -253 8 -30 35 -26 143 22 60 26 111 48 113
48 2 0 3 406 3 903 0 863 -1 904 -19 944 -11 23 -28 46 -39 52 -26 14 -111 14
-134 0z m-68 -1433 c0 -30 -23 -3 -26 31 -3 27 -2 27 12 9 8 -11 14 -29 14
-40z m-20 -42 c0 -14 -4 -23 -9 -19 -5 3 -13 0 -17 -6 -3 -6 -2 -14 4 -18 6
-4 1 -17 -14 -36 -12 -16 -26 -26 -30 -22 -4 4 2 17 13 30 11 12 19 27 16 33
-2 6 3 17 12 24 8 7 15 19 15 26 0 8 2 14 5 14 3 0 5 -12 5 -26z m-223 -220
c-3 -3 -12 -4 -19 -1 -8 3 -5 6 6 6 11 1 17 -2 13 -5z m-17 -26 c0 -6 -7 -7
-16 -4 -9 3 -18 6 -20 6 -3 0 -3 4 1 10 7 11 35 2 35 -12z m294 -254 c3 -8 2
-12 -4 -9 -6 3 -10 10 -10 16 0 14 7 11 14 -7z"/>
<path d="M9732 7623 c-1 -12 -6 -25 -12 -28 -5 -3 -10 -28 -10 -56 l0 -49 -20
20 c-12 12 -25 18 -31 15 -5 -4 -16 -1 -24 5 -13 11 -15 5 -15 -36 0 -27 9
-128 20 -224 11 -96 20 -194 20 -217 0 -39 -2 -43 -25 -43 -28 0 -59 -39 -53
-67 2 -9 21 -29 43 -44 63 -42 218 -129 230 -129 5 0 4 4 -3 9 -9 5 -11 17 -6
35 5 23 2 32 -22 53 -21 17 -23 21 -7 14 12 -6 28 -11 36 -11 24 0 188 79 191
93 2 7 16 116 31 242 14 127 29 245 32 263 5 32 5 33 -15 21 -15 -10 -18 -16
-9 -22 8 -5 5 -7 -8 -6 -33 2 -43 0 -58 -16 -8 -8 -21 -16 -28 -17 -7 -2 -24
-13 -38 -25 -36 -32 -93 -26 -163 16 -51 31 -55 36 -48 60 4 14 5 32 3 39 -3
8 1 10 14 5 17 -6 17 -5 1 13 -9 10 -18 39 -21 64 -2 25 -4 35 -5 23z"/>
<path d="M3682 7415 c2 -99 6 -178 9 -175 4 3 17 -4 28 -15 l22 -19 -2 150
c-2 172 -7 217 -22 207 -5 -3 -16 2 -24 13 -12 16 -13 -7 -11 -161z"/>
<path d="M9828 7503 c7 -3 16 -2 19 1 4 3 -2 6 -13 5 -11 0 -14 -3 -6 -6z"/>
<path d="M10450 7299 c0 -5 11 -21 25 -34 27 -28 75 -34 75 -10 0 11 8 14 30
10 19 -3 30 -1 30 6 0 8 -13 10 -39 6 -22 -2 -43 -1 -48 3 -16 14 -73 29 -73
19z"/>
<path d="M8301 6937 c-6 -8 -8 -17 -4 -20 3 -4 1 -7 -5 -7 -7 0 -12 -8 -12
-17 1 -16 2 -16 13 2 6 11 12 22 12 25 0 3 4 11 8 18 11 16 2 15 -12 -1z"/>
<path d="M8378 6923 c5 -21 7 -23 10 -9 2 10 0 22 -6 28 -6 6 -7 0 -4 -19z"/>
<path d="M8353 6927 c6 -15 3 -17 -13 -12 -16 5 -20 2 -18 -17 2 -13 -2 -22
-9 -21 -8 2 -9 -6 -3 -26 5 -19 4 -33 -3 -41 -9 -10 -9 -11 2 -8 26 8 74 75
65 90 -5 7 -9 19 -10 26 -2 8 -6 17 -10 20 -4 4 -4 -1 -1 -11z m15 -52 c-3 -3
-9 2 -12 12 -6 14 -5 15 5 6 7 -7 10 -15 7 -18z"/>
<path d="M9412 6859 c3 -41 4 -42 94 -94 143 -82 190 -108 172 -92 -10 7 -15
17 -11 21 4 4 0 4 -8 1 -12 -4 -16 0 -15 19 1 14 6 29 10 33 5 4 6 3 2 -4 -3
-6 -2 -14 3 -17 5 -4 8 1 7 10 -3 18 -26 35 -38 28 -4 -3 -8 -1 -8 4 0 8 -192
132 -205 132 -3 0 -5 -19 -3 -41z"/>
<path d="M2805 6655 c-25 -25 -32 -59 -16 -84 5 -8 14 -10 21 -6 9 5 11 4 6
-3 -4 -7 -1 -12 7 -12 11 0 14 13 12 58 -2 34 2 60 9 64 8 6 7 8 -2 8 -7 0
-24 -11 -37 -25z"/>
<path d="M2875 6590 c-4 -6 -10 -8 -14 -6 -4 3 -8 -1 -8 -9 0 -13 4 -12 19 2
18 16 22 23 14 23 -3 0 -8 -5 -11 -10z"/>
<path d="M8100 6557 c-30 -13 -165 -75 -300 -137 -422 -194 -1490 -677 -2370
-1072 -245 -110 -461 -212 -480 -227 -19 -15 -46 -49 -60 -77 l-25 -49 -5
-1000 c-3 -550 -7 -953 -8 -895 -3 98 -4 103 -17 75 -7 -16 -14 -28 -15 -25
-11 32 -13 156 -17 774 l-4 719 -215 -214 c-118 -118 -220 -216 -227 -218 -6
-2 -18 -11 -26 -20 -7 -9 -6 -4 3 12 9 15 15 27 14 28 -31 8 -38 6 -33 -12 4
-11 2 -19 -4 -19 -6 0 -11 9 -11 20 0 12 -7 20 -17 20 -16 1 -15 3 4 19 14 12
18 22 13 32 -5 8 -7 25 -4 39 4 17 3 21 -4 12 -6 -9 -11 6 -15 48 -3 33 -11
67 -17 75 -8 9 -9 29 -5 55 5 29 3 40 -6 40 -8 0 -6 7 6 20 11 12 16 29 13 45
-3 14 -1 25 4 25 5 0 3 10 -3 23 -11 20 -11 21 5 8 15 -13 16 -12 7 11 -5 14
-7 29 -3 34 4 4 -2 4 -13 -1 -45 -18 -80 -17 -108 5 -23 18 -27 29 -27 68 0
30 8 59 21 82 15 24 17 30 5 21 -15 -13 -21 -8 -17 13 1 5 -5 3 -14 -4 -9 -7
-15 -9 -14 -4 1 5 0 11 -1 14 -7 19 -7 39 1 34 5 -3 6 -10 3 -16 -4 -6 -3 -8
3 -5 6 4 7 25 2 59 -9 53 -5 88 10 88 4 0 6 123 4 273 -2 149 -4 309 -4 355 1
53 -3 81 -9 77 -7 -4 -10 75 -10 230 0 155 -3 234 -10 230 -6 -4 -10 12 -10
39 0 44 -1 46 -27 46 -16 0 -46 -5 -68 -10 -61 -14 -391 -70 -412 -70 -12 0
-14 3 -6 8 8 5 9 13 3 22 -8 13 -10 13 -10 1 0 -17 -11 -9 -14 11 -1 7 -12 28
-24 45 -27 39 -27 43 0 43 12 0 19 2 16 5 -3 3 -47 -1 -99 -10 -175 -28 -271
-74 -324 -153 -27 -41 -55 -151 -55 -219 0 -29 -4 -42 -13 -40 -6 1 -11 -4
-10 -10 2 -7 -2 -12 -7 -10 -11 2 -132 -299 -153 -380 -6 -24 -15 -43 -19 -43
-5 0 -8 -4 -8 -10 0 -5 17 -11 38 -11 l37 -2 -42 -6 c-23 -4 -49 -13 -58 -21
-27 -22 -58 -92 -60 -135 -1 -22 -7 -50 -13 -62 -7 -12 -12 -29 -12 -38 0 -9
-4 -14 -9 -11 -5 3 -12 -1 -15 -10 -4 -10 -2 -13 7 -8 7 5 6 1 -3 -10 -14 -18
-16 -25 -27 -77 -6 -33 10 -44 39 -27 13 7 25 13 28 13 42 10 59 19 53 28 -4
6 0 8 10 4 10 -3 17 -3 17 2 0 4 6 8 13 8 6 0 50 17 97 37 47 21 91 40 98 43
9 4 12 -26 12 -133 l0 -139 -68 -32 c-297 -143 -376 -182 -369 -182 5 -1 18 4
29 10 16 9 19 8 12 -3 -5 -7 -9 -17 -9 -21 0 -5 -11 -15 -25 -22 -14 -8 -19
-14 -12 -15 6 0 12 -5 12 -11 0 -6 -7 -8 -17 -5 -10 4 -15 4 -11 1 3 -4 1 -21
-4 -38 -13 -39 -16 -90 -6 -97 4 -3 3 -12 -2 -20 -8 -13 -10 -12 -10 3 0 9 -5
17 -11 17 -5 0 -7 6 -3 13 4 6 3 9 -1 4 -11 -10 -14 -48 -3 -41 16 10 7 -8
-15 -29 -13 -12 -15 -16 -5 -8 10 8 18 11 18 8 0 -4 12 -2 26 3 16 7 23 7 19
0 -8 -14 1 -10 243 101 l212 97 0 -154 c0 -85 2 -154 4 -154 2 0 43 19 91 41
97 46 132 48 203 12 68 -35 72 -54 72 -345 l0 -256 214 99 c235 109 262 115
339 79 29 -14 51 -34 65 -59 22 -38 22 -47 22 -439 0 -220 3 -414 6 -431 6
-27 8 -29 18 -15 8 10 33 17 76 20 36 3 76 9 90 13 24 9 120 30 164 36 12 2
30 6 41 9 11 3 67 18 125 34 58 15 111 31 119 36 7 5 29 12 47 16 l34 8 -2
-206 -3 -206 -25 -6 c-24 -6 -24 -6 -5 -18 17 -10 18 -11 3 -12 -10 0 -18 -5
-18 -11 0 -5 5 -7 12 -3 7 4 8 3 4 -4 -4 -7 -13 -12 -21 -12 -8 0 -17 -5 -20
-11 -4 -5 10 -3 30 5 21 9 39 16 41 16 2 0 4 -23 4 -50 0 -28 6 -65 14 -83 17
-41 70 -87 101 -87 13 0 68 22 122 49 86 42 439 208 833 391 69 32 292 136
495 230 204 95 456 212 560 260 105 48 388 180 630 292 242 113 494 230 560
261 119 54 120 56 140 104 20 47 20 71 20 1198 0 1059 -1 1152 -17 1181 -35
64 -78 75 -158 41z m30 -1141 c0 -743 -3 -946 -12 -954 -18 -14 -3093 -1432
-3107 -1432 -8 0 -11 251 -11 958 0 901 1 960 18 974 9 9 130 66 267 128 138
62 405 182 595 267 1343 604 1565 703 1895 853 256 117 330 149 348 150 4 0 7
-425 7 -944z m-4033 757 c-3 -10 -5 -4 -5 12 0 17 2 24 5 18 2 -7 2 -21 0 -30z
m20 -465 c-2 -13 -4 -5 -4 17 -1 22 1 32 4 23 2 -10 2 -28 0 -40z"/>
<path d="M7945 5419 c-16 -3 -69 -25 -117 -47 l-88 -41 0 -86 c0 -48 3 -85 8
-83 4 2 24 10 45 18 32 12 37 18 37 46 0 17 7 37 15 44 13 11 21 9 47 -10 l30
-22 49 23 50 23 -31 19 c-16 10 -30 21 -30 23 0 1 11 14 25 28 47 47 26 81
-40 65z m-25 -69 c0 -12 -80 -54 -87 -46 -12 11 9 38 39 51 33 13 48 12 48 -5z"/>
<path d="M7510 5227 l-115 -53 -3 -88 c-2 -69 0 -87 10 -83 7 2 61 26 121 53
79 35 107 53 107 66 0 10 -2 18 -4 18 -2 0 -33 -13 -69 -30 -77 -35 -77 -35
-77 -16 0 8 29 27 65 42 45 20 65 34 65 46 0 22 -2 22 -48 -1 -57 -29 -82 -34
-82 -19 0 7 31 26 68 42 79 35 85 39 80 60 -2 13 -24 6 -118 -37z"/>
<path d="M7165 5066 c-22 -8 -66 -25 -97 -40 l-58 -26 0 -85 c0 -47 4 -85 9
-85 25 0 163 74 203 109 48 42 62 78 47 118 -10 27 -41 29 -104 9z m25 -74 c0
-28 -25 -58 -68 -81 -31 -16 -32 -15 -32 33 0 51 24 76 72 76 24 0 28 -4 28
-28z"/>
<path d="M6830 4933 c-11 -8 -25 -13 -32 -12 -26 3 -38 -2 -58 -23 -12 -13
-27 -23 -33 -23 -22 -1 -55 -28 -50 -41 2 -7 -10 -20 -27 -29 -22 -11 -30 -21
-26 -32 4 -9 -2 -24 -14 -35 -11 -11 -18 -24 -14 -29 9 -15 48 14 52 39 9 56
123 144 205 157 31 5 41 2 62 -21 21 -22 30 -26 42 -18 27 17 29 38 4 31 -23
-6 -27 3 -10 20 16 16 -6 26 -30 13 -26 -14 -34 -13 -28 3 7 18 -18 17 -43 0z"/>
<path d="M6715 4808 c-27 -29 -64 -69 -83 -90 -37 -39 -37 -67 1 -47 16 9 22
9 25 0 5 -16 31 -14 48 4 10 9 25 13 39 9 17 -4 29 1 46 20 12 14 30 26 39 26
17 0 60 40 44 40 -5 0 0 7 10 15 11 8 17 17 14 21 -4 3 -24 -10 -46 -30 -50
-46 -116 -76 -167 -76 -23 0 -47 -6 -55 -12 -8 -7 17 21 55 62 39 41 75 78 80
82 6 3 41 1 78 -6 37 -7 70 -10 74 -7 3 3 3 -1 -2 -9 -6 -12 -5 -13 6 -2 19
18 2 29 -65 41 -87 16 -88 16 -141 -41z"/>
<path d="M6409 4724 c-88 -26 -170 -95 -184 -156 -10 -39 25 -72 68 -62 62 13
152 61 185 98 29 34 40 56 27 56 -16 0 -83 -41 -88 -54 -8 -20 -65 -49 -83
-42 -17 7 -18 55 -1 77 19 25 57 41 82 35 25 -6 95 18 95 34 0 25 -44 31 -101
14z"/>
<path d="M6060 4563 c-8 -2 -52 -21 -97 -40 l-83 -36 0 -88 0 -88 43 19 c35
16 43 24 45 50 3 28 11 35 57 56 53 24 105 73 105 98 0 28 -32 42 -70 29z
m-20 -68 c0 -12 -47 -45 -65 -45 -13 0 -3 40 13 49 25 15 52 13 52 -4z"/>
<path d="M5705 4403 c-11 -3 -57 -23 -102 -44 l-83 -38 0 -85 c0 -47 2 -86 5
-86 3 0 24 9 45 20 32 16 40 26 40 48 0 23 9 32 66 61 74 38 109 86 84 116
-13 15 -20 16 -55 8z m-25 -69 c0 -15 -38 -44 -57 -44 -22 0 -14 36 9 47 30
13 48 12 48 -3z"/>
<path d="M5265 4206 c-49 -22 -51 -26 -101 -133 l-51 -111 40 18 c22 10 48 28
57 40 21 28 99 63 114 52 7 -6 28 -1 54 10 l43 19 -36 42 c-19 23 -41 52 -47
65 -14 27 -12 27 -73 -2z m25 -86 c0 -13 -36 -40 -55 -40 -2 0 4 18 12 40 13
32 19 38 30 29 7 -6 13 -19 13 -29z"/>
<path d="M8513 6547 c-18 -21 -18 -21 2 -8 11 8 8 2 -7 -13 -32 -31 -38 -89
-13 -122 11 -13 14 -14 13 -4 -2 10 4 14 17 12 l20 -4 -20 16 c-17 12 -18 17
-7 28 7 7 12 9 10 3 -1 -5 4 -20 13 -33 l16 -22 27 27 c15 14 25 32 22 40 -7
18 4 44 15 37 5 -3 9 4 9 14 0 18 -16 31 -47 38 -6 1 -9 -4 -6 -12 3 -8 8 -12
12 -9 4 2 8 -2 8 -10 0 -13 -3 -13 -17 0 -9 8 -22 15 -28 15 -6 0 -14 4 -17
10 -3 6 1 7 9 4 9 -3 16 -4 16 -1 0 16 -31 12 -47 -6z m67 -52 c0 -17 -26 -20
-35 -5 -3 6 1 7 9 4 21 -8 20 5 -1 23 -16 13 -16 13 5 3 12 -6 22 -17 22 -25z"/>
<path d="M10905 6289 c-64 -57 -68 -149 -6 -149 45 0 91 62 91 122 0 64 -32
74 -85 27z"/>
<path d="M9876 6008 c-35 -35 -35 -35 -35 -127 0 -80 2 -93 19 -104 13 -8 20
-23 20 -44 0 -28 -8 -38 -54 -72 -93 -69 -110 -159 -46 -249 27 -39 31 -51 29
-103 -1 -32 0 -61 3 -64 4 -4 154 68 166 80 2 2 -1 14 -8 27 -10 21 -10 22 4
4 15 -18 36 -14 36 7 0 7 -4 6 -10 -3 -5 -8 -10 -10 -10 -4 0 17 12 25 25 14
8 -7 12 -5 12 6 0 23 -62 72 -108 84 -23 7 -58 9 -77 5 l-34 -6 7 38 c7 41 44
112 69 133 12 9 19 10 30 1 15 -13 19 14 17 110 0 30 5 51 14 59 8 7 15 20 15
30 0 10 16 27 35 39 104 61 87 159 -29 169 -53 4 -57 3 -90 -30z m125 -605
c13 -16 12 -17 -3 -4 -10 7 -18 15 -18 17 0 8 8 3 21 -13z"/>
<path d="M8860 5988 c0 -30 34 -43 71 -30 22 9 22 9 -7 16 -16 4 -37 15 -46
23 -17 15 -18 14 -18 -9z"/>
<path d="M1791 5983 c0 -12 -8 -28 -16 -37 -8 -8 -15 -17 -15 -20 0 -3 7 -3
15 0 11 4 15 -1 16 -17 1 -22 1 -21 9 4 5 16 17 35 27 42 17 13 17 14 -4 9
-17 -5 -22 -1 -26 18 -4 22 -4 22 -6 1z"/>
<path d="M8566 5755 c-6 -16 12 -32 36 -32 13 0 15 4 8 17 -5 10 -7 19 -5 22
2 2 -4 4 -15 5 -10 1 -21 -4 -24 -12z"/>
<path d="M9970 5741 c0 -9 30 -24 36 -18 2 1 -6 8 -16 15 -11 7 -20 8 -20 3z"/>
<path d="M10215 5489 c-15 -6 -9 -8 23 -8 23 -1 42 2 42 7 0 10 -41 11 -65 1z"/>
<path d="M1755 5270 c-3 -6 1 -7 9 -4 18 7 21 14 7 14 -6 0 -13 -4 -16 -10z"/>
<path d="M1610 5205 c-14 -8 -20 -14 -15 -14 6 0 21 6 35 14 14 8 21 14 15 14
-5 0 -21 -6 -35 -14z"/>
<path d="M1545 5172 c-16 -11 -37 -27 -45 -38 -10 -12 -4 -10 16 6 17 14 40
30 50 37 11 6 17 12 14 12 -3 1 -18 -7 -35 -17z"/>
<path d="M2305 5148 c-4 -13 -7 -26 -6 -30 0 -4 -6 -5 -14 -2 -9 4 -18 -1 -22
-12 -3 -11 -14 -31 -24 -45 -16 -23 -18 -46 -16 -183 1 -103 -2 -156 -8 -156
-14 0 -79 63 -84 81 -25 89 -32 125 -38 187 -3 40 -7 71 -9 69 -2 -1 -6 -18
-9 -36 -3 -19 -8 -38 -11 -43 -9 -14 6 -79 17 -73 8 5 15 -41 10 -68 -1 -5 3
-6 9 -2 6 3 10 -4 10 -17 0 -13 6 -30 13 -36 6 -7 12 -17 12 -23 0 -5 2 -8 5
-6 3 1 22 -14 43 -33 27 -24 47 -34 63 -32 13 2 24 -1 24 -7 0 -17 18 -13 40
9 19 19 20 29 14 248 -4 125 -8 228 -9 230 -1 1 -6 -8 -10 -20z"/>
<path d="M2091 5124 c0 -11 3 -14 6 -6 3 7 2 16 -1 19 -3 4 -6 -2 -5 -13z"/>
<path d="M1474 4995 c0 -55 1 -76 3 -47 2 29 2 74 0 100 -2 26 -3 2 -3 -53z"/>
<path d="M4120 5030 c0 -5 7 -10 15 -10 8 0 15 5 15 10 0 6 -7 10 -15 10 -8 0
-15 -4 -15 -10z"/>
<path d="M1926 4995 c-3 -9 -6 -29 -7 -43 l-1 -27 -7 25 c-7 22 -8 21 -13 -15
-8 -58 -13 -236 -13 -430 0 -184 3 -198 55 -235 l30 -21 -12 28 c-8 19 -12
136 -13 376 -1 191 -4 350 -7 353 -3 2 -8 -2 -12 -11z"/>
<path d="M8380 4895 c0 -27 30 -89 58 -118 28 -29 123 -90 160 -101 25 -8 58
20 43 38 -6 7 -44 30 -86 51 -51 26 -92 56 -125 92 -30 33 -50 48 -50 38z"/>
<path d="M10578 4903 c-26 -4 -41 -23 -18 -23 6 0 10 -9 10 -19 0 -10 7 -21
15 -25 8 -3 15 -12 15 -21 0 -8 5 -15 10 -15 6 0 10 -7 10 -15 0 -8 7 -15 16
-15 25 0 194 82 188 91 -3 5 -34 18 -70 29 -62 19 -112 23 -176 13z"/>
<path d="M1217 4832 c-9 -10 -17 -33 -17 -50 0 -28 -3 -32 -28 -32 -32 0 -52
-16 -52 -42 0 -44 114 -26 137 23 7 14 13 45 15 70 3 38 0 44 -18 47 -11 2
-28 -6 -37 -16z"/>
<path d="M4318 4754 c-39 -21 -35 -28 5 -8 37 19 44 24 31 24 -5 -1 -21 -8
-36 -16z"/>
<path d="M1482 4584 c-59 -24 -86 -124 -45 -166 59 -59 177 73 130 146 -20 30
-47 37 -85 20z m72 -40 c9 -22 -19 -81 -45 -94 -19 -11 -24 -10 -35 5 -14 19
-10 37 18 78 21 30 52 36 62 11z"/>
<path d="M9547 4322 c-8 -278 -3 -304 90 -395 60 -58 83 -57 79 6 -4 52 -24
155 -36 182 -5 11 -11 38 -14 60 -8 64 -17 106 -27 132 -5 14 -7 29 -3 34 3 5
0 9 -5 9 -6 0 -11 16 -11 36 0 25 -3 33 -12 28 -8 -5 -7 0 2 11 8 10 10 16 4
12 -16 -9 -44 30 -44 63 0 16 -4 31 -8 34 -5 3 -12 -92 -15 -212z"/>
<path d="M3031 4013 c-14 -9 -21 -11 -16 -4 4 8 -3 6 -18 -4 -14 -9 -35 -36
-47 -59 -37 -77 -19 -143 32 -115 13 8 25 13 28 14 3 0 39 20 81 44 l76 45
-14 28 c-17 33 -59 68 -82 68 -9 0 -27 -8 -40 -17z"/>
<path d="M3635 3854 c-77 -36 -232 -107 -345 -158 -388 -177 -362 -163 -355
-188 65 -213 100 -295 180 -420 40 -61 170 -212 184 -213 21 -2 50 -18 46 -25
-3 -5 6 -5 20 -2 14 4 40 28 59 54 18 26 36 45 40 43 3 -3 4 -2 2 1 -3 3 6 23
19 43 106 169 229 484 286 734 32 140 36 197 17 196 -7 0 -76 -30 -153 -65z"/>
<path d="M7960 3819 c-118 -56 -366 -172 -550 -259 -361 -170 -640 -300 -645
-300 -1 0 -173 -80 -381 -178 -209 -98 -466 -219 -571 -268 -106 -48 -193 -91
-193 -95 0 -4 12 -14 26 -24 25 -16 28 -16 82 8 142 63 541 251 677 319 83 42
191 92 240 113 50 20 99 42 110 49 11 7 81 40 155 74 74 33 248 114 385 180
302 144 377 179 520 244 61 27 160 73 220 102 61 29 136 63 167 77 32 13 58
27 58 30 0 9 -48 29 -68 28 -9 0 -114 -45 -232 -100z"/>
<path d="M8133 3807 c-73 -34 -132 -64 -133 -67 0 -9 165 -110 180 -110 18 0
280 121 280 129 0 9 -174 111 -186 110 -5 -1 -68 -29 -141 -62z"/>
<path d="M2806 3729 c-8 -89 -17 -116 -34 -105 -7 4 -12 -10 -15 -36 l-4 -43
-1 47 c-1 26 -6 49 -11 52 -11 7 -93 -17 -92 -26 1 -5 -8 -17 -19 -28 -28 -28
-106 -195 -121 -260 -13 -55 -18 -193 -10 -260 3 -19 18 -55 34 -80 20 -31 23
-39 9 -27 -11 10 -35 46 -53 80 -34 61 -34 63 -34 192 l0 131 -51 -51 c-28
-28 -59 -66 -69 -85 -10 -19 -23 -38 -29 -42 -6 -4 -7 -8 -3 -8 5 0 1 -12 -7
-27 -9 -16 -24 -63 -35 -106 -18 -74 -19 -125 -4 -207 3 -19 7 -46 9 -60 1
-14 7 -38 13 -53 6 -16 11 -42 11 -58 0 -16 5 -29 11 -29 5 0 8 -4 4 -10 -3
-5 -1 -17 4 -27 5 -10 12 -26 15 -36 15 -48 102 -41 248 18 15 6 16 -22 20
-337 3 -388 1 -375 83 -424 25 -14 60 -26 78 -26 20 0 124 43 271 111 131 62
241 110 243 108 2 -3 8 -62 13 -133 14 -194 18 -204 93 -204 45 0 54 4 88 40
l38 40 3 348 c3 341 3 348 27 395 12 26 36 61 52 77 16 17 26 28 22 26 -3 -3
-18 3 -33 14 -16 11 -33 20 -38 20 -6 0 -13 4 -16 9 -8 13 34 1 64 -18 19 -12
18 -8 -7 16 -18 17 -33 35 -33 41 0 5 -9 21 -20 35 -18 22 -24 24 -51 17 -28
-8 -30 -8 -18 8 7 9 9 14 5 10 -5 -4 -15 -3 -22 2 -6 6 -18 9 -25 8 -8 -2 -13
3 -11 10 1 8 -2 11 -7 7 -6 -3 -7 -13 -4 -23 6 -14 4 -15 -9 -4 -13 11 -92 17
-244 21 -26 1 -48 8 -63 22 -19 18 -25 19 -32 8 -7 -12 -9 -11 -9 1 0 9 -9 15
-22 15 -13 1 -34 5 -47 9 -16 6 -21 5 -17 -3 5 -7 -1 -11 -14 -11 -13 0 -19 4
-14 12 5 8 0 9 -14 6 -12 -4 -22 -2 -22 3 0 14 -22 11 -40 -6 -21 -19 -95 -25
-95 -8 0 6 -3 15 -7 19 -5 4 -8 0 -8 -10 0 -15 -2 -15 -21 3 -13 12 -19 26
-16 35 4 9 2 16 -3 16 -5 0 -11 -17 -13 -37 -2 -21 -4 75 -3 212 1 214 4 256
19 289 19 43 17 49 -16 51 -63 5 9 90 112 131 l41 16 -1 107 c-1 145 -13 182
-23 70z m-129 -961 c-3 -7 -5 -2 -5 12 0 14 2 19 5 13 2 -7 2 -19 0 -25z m718
-58 c-3 -5 -12 -10 -18 -10 -7 0 -6 4 3 10 19 12 23 12 15 0z"/>
<path d="M9020 3780 c-8 -5 -10 -10 -5 -10 6 0 17 5 25 10 8 5 11 10 5 10 -5
0 -17 -5 -25 -10z"/>
<path d="M8405 3709 c-109 -47 -109 -48 -17 -107 l80 -50 87 39 c48 21 90 41
93 43 5 6 -149 106 -163 106 -5 -1 -41 -14 -80 -31z"/>
<path d="M7858 3677 c-54 -23 -98 -45 -98 -48 0 -3 39 -29 87 -57 61 -37 93
-50 107 -46 35 11 196 88 196 93 0 10 -165 101 -181 101 -7 0 -58 -20 -111
-43z"/>
<path d="M8191 3609 l-84 -40 49 -35 c27 -20 66 -44 86 -55 l38 -19 80 40 c45
22 78 45 75 50 -5 8 -153 101 -158 99 -1 0 -40 -19 -86 -40z"/>
<path d="M7642 3576 c-51 -24 -95 -46 -98 -49 -4 -3 32 -31 79 -62 l86 -56
105 48 c58 26 102 51 97 56 -11 11 -164 107 -171 107 -3 -1 -47 -20 -98 -44z"/>
<path d="M8555 3566 c-66 -29 -144 -65 -174 -80 -63 -32 -64 -30 52 -100 l78
-46 77 37 c42 20 122 55 176 78 55 23 101 46 103 51 3 9 -165 114 -183 114 -5
0 -63 -24 -129 -54z"/>
<path d="M7985 3512 l-99 -48 34 -25 c19 -14 57 -38 83 -53 l49 -28 46 17 c26
10 73 31 105 47 l59 29 -59 36 c-32 20 -72 44 -88 54 l-30 18 -100 -47z"/>
<path d="M7470 3496 c-19 -7 -64 -28 -100 -46 l-64 -32 27 -23 c16 -12 56 -37
90 -55 l63 -33 102 48 102 48 -81 54 c-45 29 -87 53 -93 52 -6 0 -27 -6 -46
-13z"/>
<path d="M7744 3401 l-99 -48 80 -52 c44 -28 87 -51 95 -51 9 0 61 22 115 49
l99 48 -39 25 c-22 14 -59 37 -82 51 -24 15 -49 27 -56 27 -8 0 -58 -22 -113
-49z"/>
<path d="M8203 3397 c-46 -23 -83 -44 -83 -47 0 -11 150 -100 167 -99 10 0 58
19 107 42 l89 42 -84 53 c-46 28 -90 52 -99 51 -8 0 -52 -19 -97 -42z"/>
<path d="M8935 3385 c-44 -18 -80 -37 -79 -41 1 -5 12 -15 26 -23 23 -13 32
-12 102 19 86 38 93 44 76 65 -17 21 -33 18 -125 -20z"/>
<path d="M7183 3362 c-51 -26 -93 -49 -93 -53 0 -11 123 -87 152 -94 20 -5 51
5 125 39 l97 47 -39 23 c-22 12 -62 37 -89 54 -28 18 -52 32 -55 31 -4 0 -48
-21 -98 -47z"/>
<path d="M8605 3372 l-79 -38 34 -26 c19 -14 59 -40 88 -58 l53 -33 70 28 c38
15 79 35 91 44 21 18 21 18 -62 69 -46 29 -91 52 -100 52 -8 0 -51 -18 -95
-38z"/>
<path d="M7599 3336 c-19 -7 -69 -30 -112 -52 l-79 -40 34 -25 c46 -36 122
-79 138 -79 16 0 210 91 210 99 0 3 -36 29 -78 57 -75 50 -80 51 -113 40z"/>
<path d="M7985 3297 l-89 -43 74 -52 c87 -61 90 -61 207 -7 l76 35 -24 18
c-54 42 -132 92 -143 92 -6 0 -51 -20 -101 -43z"/>
<path d="M7000 3274 c-30 -13 -72 -32 -93 -40 l-38 -17 23 -25 23 -25 -25 16
c-13 9 -32 17 -42 17 -25 0 -128 -52 -128 -65 0 -12 158 -96 180 -95 8 1 40
14 70 29 l54 28 -31 17 c-18 9 -35 20 -38 26 -4 6 13 0 37 -13 39 -22 47 -23
78 -12 39 14 160 73 160 79 0 6 -156 106 -166 106 -5 -1 -34 -12 -64 -26z"/>
<path d="M7763 3195 c-51 -24 -93 -46 -93 -48 0 -3 36 -28 81 -57 l81 -52 51
22 c29 13 73 33 100 46 l47 24 -32 29 c-50 42 -111 81 -128 81 -8 -1 -57 -21
-107 -45z"/>
<path d="M8498 3202 c-48 -21 -90 -40 -93 -44 -10 -10 55 -48 80 -47 11 0 58
19 105 43 l85 44 -35 21 c-19 11 -39 21 -45 20 -5 0 -49 -17 -97 -37z"/>
<path d="M7279 3189 c-46 -23 -95 -45 -108 -50 l-23 -9 23 -18 c13 -10 52 -35
87 -56 59 -36 64 -37 100 -25 20 6 72 30 115 51 l79 40 -81 54 c-44 30 -86 54
-94 54 -7 0 -51 -18 -98 -41z"/>
<path d="M8275 3116 c-44 -19 -96 -40 -115 -49 l-34 -15 49 -31 c27 -17 52
-31 56 -31 16 0 219 101 219 109 0 12 -63 51 -81 51 -8 -1 -50 -16 -94 -34z"/>
<path d="M6605 3094 c-44 -19 -86 -38 -92 -41 -25 -11 -14 -22 89 -84 l67 -41
101 48 c81 38 98 50 88 60 -13 12 -158 94 -168 94 -3 0 -41 -16 -85 -36z m112
-70 c-3 -3 -12 -4 -19 -1 -8 3 -5 6 6 6 11 1 17 -2 13 -5z"/>
<path d="M7538 3093 c-43 -20 -78 -39 -78 -42 0 -3 38 -30 85 -59 l85 -52 93
44 92 43 -79 52 c-43 28 -88 51 -100 50 -11 0 -56 -16 -98 -36z"/>
<path d="M7016 3067 c-101 -48 -101 -43 8 -111 32 -21 56 -40 53 -43 -3 -3
-40 18 -82 46 -42 28 -84 51 -92 51 -27 0 -204 -90 -198 -100 10 -15 157 -100
175 -100 8 0 92 37 185 83 94 46 185 90 204 98 l33 15 -79 52 c-43 29 -88 52
-99 51 -10 0 -59 -19 -108 -42z m-99 -163 c-3 -3 -12 -4 -19 -1 -8 3 -5 6 6 6
11 1 17 -2 13 -5z"/>
<path d="M7949 3055 c-40 -19 -74 -38 -74 -42 0 -10 146 -112 161 -113 14 0
121 47 146 64 17 12 12 18 -59 63 -43 27 -83 52 -89 56 -5 3 -44 -10 -85 -28z"/>
<path d="M10829 3063 c-13 -16 -12 -17 4 -4 16 13 21 21 13 21 -2 0 -10 -8
-17 -17z"/>
<path d="M7371 3019 c-53 -23 -52 -24 56 -89 l78 -47 45 19 c25 11 48 23 53
27 6 6 -85 72 -140 100 -29 14 -40 13 -92 -10z"/>
<path d="M10806 3024 c-13 -35 -6 -102 14 -127 22 -28 135 -100 156 -100 7 0
11 -4 8 -9 -5 -7 3 -10 22 -7 3 0 11 -6 17 -15 7 -8 19 -16 27 -18 8 -2 19 -8
25 -15 5 -7 17 -13 25 -15 8 -2 21 -10 28 -18 12 -13 13 -13 6 0 -4 8 4 3 19
-12 27 -29 43 -37 32 -15 -4 6 2 2 12 -9 29 -35 110 -77 119 -63 4 7 3 9 -3 6
-6 -4 -23 5 -37 18 -15 14 -31 23 -35 21 -4 -3 -13 5 -20 16 -12 19 -11 20 6
14 18 -8 63 -15 63 -11 0 5 -114 78 -252 161 -79 48 -163 103 -186 123 -38 30
-43 39 -38 63 6 31 2 37 -8 12z m374 -310 c0 -8 -19 -13 -24 -6 -3 5 1 9 9 9
8 0 15 -2 15 -3z"/>
<path d="M6380 2986 c-47 -24 -85 -47 -84 -52 1 -12 124 -94 152 -101 15 -3
53 9 113 38 l91 44 -79 52 c-43 29 -85 54 -93 57 -8 3 -53 -14 -100 -38z"/>
<path d="M7700 2946 c-259 -120 -716 -338 -724 -347 -12 -11 -2 -18 104 -83
l77 -47 419 201 c230 111 422 204 427 209 7 7 -162 122 -179 120 -5 0 -61 -24
-124 -53z"/>
<path d="M7203 2935 c-51 -24 -93 -46 -93 -49 0 -10 153 -106 170 -106 9 0 61
22 115 48 l98 48 -85 52 c-47 29 -92 52 -99 52 -8 0 -56 -20 -106 -45z"/>
<path d="M11493 2960 c-1 -12 4 -20 14 -20 10 0 13 6 9 16 -5 12 -1 14 15 9
15 -5 19 -4 15 4 -12 20 -52 13 -53 -9z"/>
<path d="M11387 2963 c-11 -17 75 -79 93 -68 6 3 10 0 10 -8 0 -16 47 -40 55
-28 5 9 -33 38 -57 43 -7 2 -18 10 -25 18 -7 8 -13 11 -13 6 0 -6 -7 -1 -16
10 -8 10 -13 12 -9 4 4 -8 -2 -4 -13 9 -11 13 -22 19 -25 14z"/>
<path d="M6173 2885 c-51 -24 -93 -46 -93 -49 0 -7 166 -106 179 -106 6 0 49
19 95 42 l85 42 -62 41 c-123 82 -100 79 -204 30z"/>
<path d="M6607 2870 c-32 -15 -61 -30 -63 -33 -12 -12 141 -107 172 -107 17 0
112 45 128 60 10 10 -139 110 -163 109 -9 0 -42 -13 -74 -29z"/>
<path d="M6981 2830 l-104 -50 84 -55 c46 -30 88 -55 93 -55 5 0 52 21 105 46
l96 45 -27 22 c-48 40 -113 86 -128 91 -8 3 -62 -17 -119 -44z"/>
<path d="M5955 2782 l-98 -48 39 -30 c21 -17 61 -43 88 -58 l49 -27 100 48 99
48 -68 46 c-113 75 -98 74 -209 21z"/>
<path d="M6433 2787 c-35 -17 -63 -34 -63 -37 0 -6 108 -78 148 -99 19 -10 32
-8 77 13 108 49 107 47 18 105 -43 28 -87 50 -98 50 -11 0 -48 -14 -82 -32z"/>
<path d="M12122 2770 c0 -19 2 -27 5 -17 2 9 2 25 0 35 -3 9 -5 1 -5 -18z"/>
<path d="M6769 2724 l-94 -46 24 -19 c13 -11 52 -35 86 -55 55 -30 66 -33 91
-24 44 17 154 74 154 80 0 4 -121 84 -156 103 -6 4 -54 -14 -105 -39z"/>
<path d="M9835 2741 c-3 -5 -1 -12 5 -16 5 -3 10 -1 10 5 0 6 5 8 12 4 7 -4 8
-3 4 4 -9 14 -23 15 -31 3z"/>
<path d="M6235 2692 l-99 -48 34 -26 c19 -14 59 -40 89 -58 l54 -31 98 47 c55
26 99 51 99 54 0 11 -158 112 -172 110 -2 -1 -48 -22 -103 -48z"/>
<path d="M9680 2720 c-8 -5 -10 -10 -5 -10 6 0 17 5 25 10 8 5 11 10 5 10 -5
0 -17 -5 -25 -10z"/>
<path d="M12091 2716 c-7 -8 -8 -17 -3 -20 6 -3 15 1 21 8 7 8 8 17 3 20 -6 3
-15 -1 -21 -8z"/>
<path d="M5778 2693 c-32 -14 -58 -30 -58 -34 0 -10 147 -109 162 -109 5 0 36
14 69 30 l60 31 -82 54 c-45 30 -84 55 -88 54 -3 0 -32 -12 -63 -26z"/>
<path d="M9760 2706 c-9 -12 -8 -15 8 -13 10 0 19 7 19 14 0 17 -12 17 -27 -1z"/>
<path d="M1588 2673 c-24 -27 -30 -287 -7 -301 14 -9 17 7 22 151 4 88 5 162
3 164 -1 2 -10 -5 -18 -14z"/>
<path d="M9692 2678 c-7 -7 -12 -8 -12 -4 0 5 -8 2 -17 -5 -15 -12 -16 -12 -8
1 8 13 7 13 -8 1 -14 -11 -15 -17 -6 -28 7 -8 15 -10 18 -6 3 4 13 9 21 11 8
2 17 8 18 13 2 5 7 7 11 5 4 -3 8 1 8 9 0 18 -9 19 -25 3z"/>
<path d="M12067 2684 c-4 -4 -16 -7 -28 -8 -22 -1 -41 -26 -19 -26 6 0 8 5 4
12 -5 7 -2 9 8 5 9 -3 24 1 35 8 10 8 15 15 12 15 -3 0 -9 -3 -12 -6z"/>
<path d="M6556 2623 c-53 -26 -95 -52 -93 -57 6 -22 142 -106 162 -101 11 2
63 24 115 48 l94 44 -55 35 c-30 18 -70 44 -90 56 l-36 22 -97 -47z"/>
<path d="M9613 2658 c4 -12 1 -18 -9 -18 -9 0 -12 -5 -8 -12 6 -10 4 -10 -7
-2 -17 13 -47 10 -63 -7 -8 -9 -5 -9 14 0 23 11 24 11 6 -3 -16 -13 -22 -13
-35 -3 -12 10 -14 9 -8 -7 6 -16 5 -17 -7 -7 -12 10 -18 9 -34 -6 -23 -22 -42
-27 -38 -10 1 6 1 9 -1 4 -3 -4 -9 -5 -14 -2 -5 4 -6 -2 -2 -12 6 -16 5 -17
-12 -3 -15 12 -17 12 -10 1 6 -11 4 -13 -10 -8 -14 6 -16 3 -12 -13 3 -11 1
-18 -3 -15 -10 6 -70 -27 -70 -38 0 -5 -4 -5 -10 -2 -5 3 -10 1 -10 -5 0 -7
-6 -10 -14 -7 -8 3 -20 -1 -26 -8 -7 -8 -17 -12 -23 -8 -5 3 -7 1 -4 -4 4 -6
0 -14 -9 -17 -8 -3 -13 -10 -9 -15 3 -5 0 -13 -6 -17 -8 -4 -9 -3 -5 4 4 7 3
12 -3 12 -17 0 -22 -18 -6 -24 8 -3 21 2 30 10 8 9 15 12 15 8 0 -4 9 1 21 12
12 10 23 18 25 17 6 -4 39 10 45 19 3 5 12 10 20 11 8 2 20 6 27 10 6 5 12 5
12 1 0 -4 9 1 20 11 11 10 20 15 20 11 0 -4 7 0 16 8 8 9 19 14 24 11 4 -3 13
2 20 10 7 8 16 12 21 9 5 -3 9 0 9 6 0 6 4 9 9 5 14 -8 61 16 54 28 -4 6 0 8
11 4 11 -5 15 -3 10 5 -5 8 -2 9 9 5 9 -3 23 0 31 8 7 8 17 11 21 7 4 -4 2 4
-5 18 -16 31 -25 41 -17 18z"/>
<path d="M11985 2650 c6 -10 4 -12 -11 -6 -15 6 -17 5 -6 -5 9 -9 15 -10 23
-2 8 8 7 13 -2 18 -8 6 -10 4 -4 -5z"/>
<path d="M11845 2640 c-3 -5 -3 -14 0 -20 3 -5 2 -10 -4 -10 -5 0 -11 4 -13 9
-1 5 -43 -11 -93 -35 -49 -24 -84 -43 -76 -44 11 0 11 -3 0 -17 -13 -16 -12
-17 3 -4 10 7 16 17 13 21 -3 4 2 11 10 14 12 4 14 0 9 -18 -3 -13 -1 -27 5
-30 6 -4 11 -2 11 4 0 6 5 8 12 4 7 -5 8 -3 3 6 -6 10 -4 12 9 7 11 -4 15 -3
10 4 -4 8 1 9 15 4 14 -4 23 -2 27 9 3 8 12 12 20 9 7 -3 16 2 20 10 3 10 12
13 22 9 15 -5 16 -4 2 13 -14 17 -14 18 9 6 19 -11 22 -11 16 0 -6 9 -3 10 10
5 16 -6 16 -4 4 10 -13 16 -12 16 11 4 23 -12 24 -12 11 3 -15 19 -56 24 -45
5 5 -7 3 -8 -5 -4 -7 5 -10 14 -7 22 6 16 0 19 -9 4z m-70 -89 c2 -4 -9 -6
-25 -5 -18 1 -31 -4 -35 -13 -3 -9 -8 -13 -12 -9 -12 11 28 44 48 39 10 -3 21
-8 24 -12z"/>
<path d="M6020 2586 c-52 -24 -96 -48 -98 -54 -1 -5 34 -33 78 -62 l82 -52 99
48 c54 26 99 50 99 53 0 6 -153 111 -161 111 -2 0 -47 -20 -99 -44z"/>
<path d="M10698 2623 c-24 -6 -23 -40 1 -48 26 -8 51 4 51 25 0 14 -24 35 -33
29 -1 -1 -10 -3 -19 -6z"/>
<path d="M6847 2544 c-37 -19 -65 -39 -62 -44 8 -12 109 -82 151 -103 30 -15
33 -15 108 20 42 20 75 41 73 47 -6 18 -158 116 -180 116 -12 -1 -53 -17 -90
-36z"/>
<path d="M6266 2482 c-180 -88 -176 -76 -58 -150 l64 -39 156 73 c87 41 157
78 157 83 0 9 -144 112 -155 110 -3 0 -76 -35 -164 -77z"/>
<path d="M4950 2525 c0 -59 25 -92 107 -139 43 -25 109 -64 146 -88 66 -41 72
-43 147 -43 43 0 76 3 72 6 -4 4 -101 64 -217 134 -115 71 -217 134 -226 142
-23 19 -29 16 -29 -12z"/>
<path d="M6680 2464 l-75 -35 98 -64 99 -64 70 35 70 35 -38 28 c-22 16 -64
44 -94 64 l-56 35 -74 -34z"/>
<path d="M11553 2473 c9 -2 23 -2 30 0 6 3 -1 5 -18 5 -16 0 -22 -2 -12 -5z"/>
<path d="M11608 2473 c7 -3 16 -2 19 1 4 3 -2 6 -13 5 -11 0 -14 -3 -6 -6z"/>
<path d="M6447 2343 c-76 -37 -136 -71 -135 -75 5 -14 162 -108 180 -108 17 0
278 126 278 134 0 5 -154 104 -173 112 -7 2 -75 -26 -150 -63z"/>
<path d="M9098 2392 c-19 -4 -24 -17 -9 -26 5 -3 14 1 21 9 7 8 15 13 19 11 4
-3 13 -1 20 3 14 9 -18 11 -51 3z"/>
<path d="M1506 2250 c3 -74 7 -175 10 -225 l6 -90 96 -57 c53 -31 118 -69 145
-83 l47 -27 0 207 c0 135 -3 204 -10 200 -5 -3 -10 -1 -10 5 0 6 -4 9 -8 6 -5
-3 -9 1 -9 9 0 10 5 11 19 4 10 -5 18 -8 18 -5 0 7 -94 59 -107 59 -7 0 -11 2
-8 5 7 7 -166 113 -175 107 -5 -3 -10 1 -13 7 -3 7 -3 -48 -1 -122z"/>
<path d="M9035 2361 c-3 -5 -2 -12 3 -15 5 -3 9 1 9 9 0 17 -3 19 -12 6z"/>
<path d="M9000 2346 c0 -2 7 -7 16 -10 8 -3 12 -2 9 4 -6 10 -25 14 -25 6z"/>
<path d="M8850 2270 c-12 -7 -10 -9 7 -7 12 0 19 5 17 9 -6 10 -6 10 -24 -2z"/>
<path d="M5482 2175 c61 -117 151 -177 290 -195 89 -11 135 -32 195 -88 31
-30 40 -45 36 -61 -5 -20 19 -56 31 -44 3 4 6 1 6 -6 0 -7 5 -9 10 -6 6 3 10
2 10 -4 0 -5 53 -42 118 -82 64 -39 129 -80 144 -90 45 -31 92 -57 339 -187
160 -84 259 -82 446 8 59 29 178 85 263 125 85 40 281 133 435 207 154 75 321
155 370 178 50 23 98 49 108 58 9 8 17 12 17 9 0 -3 13 -1 30 4 17 6 27 16 23
22 -4 7 0 8 11 4 9 -4 15 -3 12 2 -7 10 22 24 34 16 4 -3 10 4 13 15 6 23 3
24 -22 8 -15 -9 -23 -9 -35 1 -9 7 -13 17 -10 22 3 5 -2 6 -10 3 -9 -3 -13
-11 -9 -17 4 -6 0 -8 -11 -4 -11 5 -15 3 -10 -5 5 -8 2 -9 -10 -5 -13 5 -15 3
-7 -12 14 -25 3 -33 -22 -16 -18 13 -22 12 -34 -3 -8 -9 -12 -11 -8 -4 3 6 1
12 -4 12 -6 0 -11 -5 -11 -11 0 -5 -4 -7 -10 -4 -5 3 -10 1 -10 -5 0 -6 -4 -8
-10 -5 -5 3 -10 1 -10 -5 0 -6 -4 -8 -10 -5 -5 3 -10 1 -10 -5 0 -6 -4 -8 -10
-5 -5 3 -10 1 -10 -5 0 -6 -4 -8 -10 -5 -5 3 -10 2 -10 -4 0 -6 -7 -7 -17 -4
-12 5 -14 3 -8 -7 5 -8 4 -11 -3 -6 -6 3 -50 -12 -99 -35 -48 -23 -151 -70
-228 -106 -77 -36 -288 -135 -470 -221 -315 -150 -333 -157 -401 -160 -57 -3
-81 0 -119 17 -26 11 -322 186 -659 387 -336 202 -625 375 -642 385 l-31 19
39 -75z m2882 -126 c-3 -5 -10 -7 -15 -3 -5 3 -7 10 -3 15 3 5 10 7 15 3 5 -3
7 -10 3 -15z"/>
<path d="M8755 2227 c-11 -9 -14 -16 -8 -20 6 -4 16 0 23 8 7 8 17 12 23 8 6
-3 7 -1 3 5 -9 15 -18 15 -41 -1z"/>
<path d="M8715 2190 c-3 -6 1 -7 9 -4 18 7 21 14 7 14 -6 0 -13 -4 -16 -10z"/>
<path d="M4648 2133 c7 -3 16 -2 19 1 4 3 -2 6 -13 5 -11 0 -14 -3 -6 -6z"/>
<path d="M4685 2120 c3 -4 14 -10 25 -13 11 -3 18 -2 15 3 -3 4 -14 10 -25 13
-11 3 -18 2 -15 -3z"/>
<path d="M8405 2120 c-3 -6 1 -7 9 -4 18 7 21 14 7 14 -6 0 -13 -4 -16 -10z"/>
<path d="M8510 2110 c-9 -6 -10 -10 -3 -10 6 0 15 5 18 10 8 12 4 12 -15 0z"/>
<path d="M8449 2094 c-9 -12 -10 -17 0 -27 10 -9 11 -8 6 4 -5 13 -1 16 19 14
31 -4 33 1 7 14 -14 8 -22 7 -32 -5z"/>
<path d="M4769 2077 c6 -8 9 -16 6 -19 -3 -2 2 -5 10 -5 13 0 13 3 -2 19 -19
21 -31 25 -14 5z"/>
<path d="M8270 2056 c0 -2 8 -10 18 -17 15 -13 16 -12 3 4 -13 16 -21 21 -21
13z"/>
<path d="M3857 2043 c-11 -11 -8 -333 3 -333 6 0 10 17 10 38 0 43 28 109 57
135 18 16 19 24 11 59 -16 74 -58 125 -81 101z"/>
<path d="M10250 1986 c0 -2 11 -6 25 -8 13 -3 22 -1 19 3 -5 9 -44 13 -44 5z"/>
<path d="M10323 1973 c9 -2 23 -2 30 0 6 3 -1 5 -18 5 -16 0 -22 -2 -12 -5z"/>
<path d="M4965 1961 c-11 -5 -25 -6 -31 -4 -7 2 -20 -14 -30 -36 -15 -32 -24
-41 -45 -41 -43 0 -154 -62 -157 -87 -7 -50 80 -90 177 -80 29 3 55 8 58 10 4
5 10 27 12 48 1 4 10 9 21 12 28 7 30 8 75 28 22 10 50 19 63 19 31 0 28 13
-19 75 -50 66 -72 76 -124 56z"/>
<path d="M4034 1838 c-45 -40 -94 -139 -94 -191 0 -27 -4 -36 -12 -31 -6 4 -4
-3 5 -17 9 -13 17 -42 17 -65 0 -36 5 -47 35 -72 l36 -29 -4 -113 c-3 -98 -6
-114 -24 -129 -11 -9 -30 -31 -43 -50 -17 -24 -25 -30 -29 -20 -3 8 -13 15
-21 17 -8 2 -30 11 -48 19 -32 15 -34 15 -49 -6 -10 -15 -22 -21 -34 -18 -11
3 -21 1 -24 -4 -3 -4 -12 -6 -19 -3 -8 3 -28 -2 -45 -10 -56 -29 -118 -14
-160 40 -19 25 -21 40 -21 190 l0 164 -40 0 c-49 0 -91 34 -67 53 8 7 17 22
20 34 4 19 -1 23 -36 29 -28 4 -53 18 -75 40 l-33 33 -79 -36 c-44 -20 -80
-40 -80 -45 0 -5 -4 -6 -10 -3 -11 7 -345 -147 -372 -172 -26 -24 -24 -84 5
-110 32 -30 713 -440 702 -423 -3 5 0 12 6 16 7 4 10 3 7 -2 -2 -5 7 -20 20
-34 14 -14 22 -18 18 -10 -5 10 -2 9 7 -2 10 -12 17 -14 24 -7 18 18 37 0 21
-19 -11 -14 -11 -14 6 -5 21 12 92 -20 234 -104 41 -23 75 -43 78 -43 2 0 50
-27 106 -61 57 -34 111 -63 121 -65 44 -8 60 -16 47 -24 -9 -5 -8 -9 4 -13 8
-3 18 -1 22 5 4 7 3 8 -4 4 -8 -5 -10 -1 -5 9 4 12 8 13 13 5 5 -7 16 -9 29
-5 12 3 19 10 16 15 -3 4 2 13 10 20 10 8 12 17 5 29 -5 9 -5 23 0 30 6 11 9
10 12 -5 2 -10 8 6 12 36 9 60 34 112 50 103 6 -4 7 1 2 12 -4 10 -2 21 4 25
6 4 12 16 13 27 1 13 7 19 17 16 10 -3 17 2 17 10 0 8 7 31 17 51 9 20 14 41
10 47 -4 8 0 7 15 0 18 -10 21 -9 21 8 0 11 6 22 13 24 6 3 3 6 -7 6 -20 1
-20 1 0 16 18 14 18 15 -6 6 -14 -5 -61 -26 -105 -46 -266 -124 -265 -124
-265 -71 0 28 -6 38 -35 56 -19 12 -35 24 -35 27 0 4 3 4 6 0 3 -3 27 1 52 9
26 8 56 17 66 19 48 11 50 21 54 267 l4 233 33 67 c77 155 45 278 -71 278 -35
0 -51 -7 -80 -32z m-56 -760 c2 -4 12 -8 21 -8 10 0 28 -12 42 -26 l24 -26
-37 15 c-20 9 -54 27 -75 42 -37 26 -37 26 -8 19 17 -4 32 -11 33 -16z"/>
<path d="M4992 1763 c-24 -10 9 -33 47 -33 l36 1 -24 19 c-23 20 -35 23 -59
13z"/>
<path d="M4669 1647 c6 -8 7 -18 3 -22 -4 -5 -1 -5 6 -1 10 6 10 11 1 22 -6 8
-14 14 -16 14 -3 0 0 -6 6 -13z"/>
<path d="M4420 1561 c0 -19 106 -113 173 -154 76 -47 141 -67 232 -74 63 -5
72 -3 90 16 15 18 16 24 6 30 -11 7 -11 9 0 13 10 4 5 14 -17 35 -16 16 -28
35 -26 43 3 7 0 10 -7 6 -6 -4 -11 -1 -11 8 0 12 -7 12 -50 1 -150 -40 -285
-17 -364 62 -14 14 -26 20 -26 14z"/>
<path d="M4410 1437 c0 -29 3 -76 6 -104 6 -49 10 -55 54 -83 53 -34 104 -87
91 -95 -5 -2 -11 2 -15 10 -3 8 -11 15 -18 14 -10 0 -10 -2 0 -6 6 -2 12 -21
12 -42 0 -34 -4 -39 -52 -64 -29 -15 -44 -25 -33 -21 11 4 35 7 53 6 17 0 32
4 32 9 0 6 -5 7 -12 3 -7 -5 -8 -3 -4 5 5 7 14 10 21 7 9 -3 12 1 10 13 -2 9
12 34 30 55 l33 39 121 -8 c85 -5 121 -4 121 4 0 6 10 11 21 11 18 0 19 2 9
15 -7 8 -20 15 -30 15 -18 0 -88 29 -213 90 -54 26 -72 40 -85 69 -10 21 -31
43 -50 53 -18 9 -41 23 -50 31 -9 7 -25 17 -34 20 -16 6 -18 0 -18 -46z"/>
<path d="M4960 1456 c0 -2 8 -10 18 -17 15 -13 16 -12 3 4 -13 16 -21 21 -21
13z"/>
<path d="M8384 1331 c3 -4 -10 -24 -29 -44 -30 -30 -35 -43 -35 -82 0 -45 -4
-49 -41 -46 -9 1 -22 -5 -29 -14 -10 -12 -16 -13 -26 -4 -12 10 -14 -16 -14
-158 l0 -169 93 -48 92 -48 90 43 90 44 3 163 c2 108 -1 162 -8 162 -6 0 -47
-18 -91 -41 -73 -36 -84 -39 -110 -29 -34 15 -29 30 10 30 15 0 42 5 60 11 31
11 31 11 31 83 0 67 -2 75 -30 104 -16 18 -30 36 -30 42 0 5 -7 10 -16 10 -8
0 -13 -4 -10 -9z"/>
<path d="M4220 1226 c0 -60 13 -77 38 -52 14 14 14 19 -7 61 -12 25 -24 45
-27 45 -2 0 -4 -24 -4 -54z"/>
<path d="M4276 1185 c-3 -9 0 -15 9 -15 9 0 12 6 9 15 -4 8 -7 15 -9 15 -2 0
-5 -7 -9 -15z"/>
<path d="M3556 842 c-3 -5 1 -9 9 -9 8 0 12 4 9 9 -3 4 -7 8 -9 8 -2 0 -6 -4
-9 -8z"/>
<path d="M8540 370 c-8 -5 -10 -10 -5 -10 6 0 17 5 25 10 8 5 11 10 5 10 -5 0
-17 -5 -25 -10z"/>
</g>
</svg>
